<mxfile host="Electron" agent="Mozilla/5.0 (Windows NT 10.0; Win64; x64) AppleWebKit/537.36 (KHTML, like Gecko) draw.io/26.2.15 Chrome/134.0.6998.205 Electron/35.2.1 Safari/537.36" version="26.2.15">
  <diagram id="C5RBs43oDa-KdzZeNtuy" name="Page-1">
    <mxGraphModel dx="728" dy="1197" grid="1" gridSize="10" guides="1" tooltips="1" connect="1" arrows="1" fold="1" page="1" pageScale="1" pageWidth="827" pageHeight="1169" math="0" shadow="0">
      <root>
        <mxCell id="WIyWlLk6GJQsqaUBKTNV-0" />
        <mxCell id="WIyWlLk6GJQsqaUBKTNV-1" parent="WIyWlLk6GJQsqaUBKTNV-0" />
        <mxCell id="WIyWlLk6GJQsqaUBKTNV-2" value="" style="rounded=0;html=1;jettySize=auto;orthogonalLoop=1;fontSize=11;endArrow=block;endFill=0;endSize=8;strokeWidth=1;shadow=0;labelBackgroundColor=none;edgeStyle=orthogonalEdgeStyle;" parent="WIyWlLk6GJQsqaUBKTNV-1" source="WIyWlLk6GJQsqaUBKTNV-3" target="WIyWlLk6GJQsqaUBKTNV-6" edge="1">
          <mxGeometry relative="1" as="geometry" />
        </mxCell>
        <mxCell id="WIyWlLk6GJQsqaUBKTNV-3" value="스킬 키 입력" style="rounded=1;whiteSpace=wrap;html=1;fontSize=12;glass=0;strokeWidth=1;shadow=0;" parent="WIyWlLk6GJQsqaUBKTNV-1" vertex="1">
          <mxGeometry x="58" y="70" width="120" height="40" as="geometry" />
        </mxCell>
        <mxCell id="WIyWlLk6GJQsqaUBKTNV-5" value="No" style="edgeStyle=orthogonalEdgeStyle;rounded=0;html=1;jettySize=auto;orthogonalLoop=1;fontSize=11;endArrow=block;endFill=0;endSize=8;strokeWidth=1;shadow=0;labelBackgroundColor=none;" parent="WIyWlLk6GJQsqaUBKTNV-1" source="WIyWlLk6GJQsqaUBKTNV-6" target="WIyWlLk6GJQsqaUBKTNV-7" edge="1">
          <mxGeometry y="10" relative="1" as="geometry">
            <mxPoint as="offset" />
          </mxGeometry>
        </mxCell>
        <mxCell id="XRQsmOzAujlqHSzxxDNQ-4" value="" style="edgeStyle=orthogonalEdgeStyle;rounded=0;orthogonalLoop=1;jettySize=auto;html=1;" parent="WIyWlLk6GJQsqaUBKTNV-1" source="WIyWlLk6GJQsqaUBKTNV-6" target="XRQsmOzAujlqHSzxxDNQ-3" edge="1">
          <mxGeometry relative="1" as="geometry" />
        </mxCell>
        <mxCell id="XRQsmOzAujlqHSzxxDNQ-5" value="Yes" style="edgeLabel;html=1;align=center;verticalAlign=middle;resizable=0;points=[];" parent="XRQsmOzAujlqHSzxxDNQ-4" vertex="1" connectable="0">
          <mxGeometry x="-0.2095" y="2" relative="1" as="geometry">
            <mxPoint x="10" as="offset" />
          </mxGeometry>
        </mxCell>
        <mxCell id="WIyWlLk6GJQsqaUBKTNV-6" value="스킬 게이지&lt;div&gt;=&lt;/div&gt;&lt;div&gt;100%&lt;/div&gt;" style="rhombus;whiteSpace=wrap;html=1;shadow=0;fontFamily=Helvetica;fontSize=12;align=center;strokeWidth=1;spacing=6;spacingTop=-4;" parent="WIyWlLk6GJQsqaUBKTNV-1" vertex="1">
          <mxGeometry x="238" y="50" width="100" height="80" as="geometry" />
        </mxCell>
        <mxCell id="WIyWlLk6GJQsqaUBKTNV-7" value="발동 안됨" style="rounded=1;whiteSpace=wrap;html=1;fontSize=12;glass=0;strokeWidth=1;shadow=0;" parent="WIyWlLk6GJQsqaUBKTNV-1" vertex="1">
          <mxGeometry x="414" y="70" width="120" height="40" as="geometry" />
        </mxCell>
        <mxCell id="XRQsmOzAujlqHSzxxDNQ-51" value="" style="edgeStyle=orthogonalEdgeStyle;rounded=0;orthogonalLoop=1;jettySize=auto;html=1;" parent="WIyWlLk6GJQsqaUBKTNV-1" source="XRQsmOzAujlqHSzxxDNQ-3" target="XRQsmOzAujlqHSzxxDNQ-50" edge="1">
          <mxGeometry relative="1" as="geometry" />
        </mxCell>
        <mxCell id="XRQsmOzAujlqHSzxxDNQ-3" value="캐릭터의 위치를 기준으로 방향 확인" style="whiteSpace=wrap;html=1;shadow=0;strokeWidth=1;spacing=6;spacingTop=-4;" parent="WIyWlLk6GJQsqaUBKTNV-1" vertex="1">
          <mxGeometry x="247" y="170" width="82" height="60" as="geometry" />
        </mxCell>
        <mxCell id="XRQsmOzAujlqHSzxxDNQ-47" value="레이나" style="text;strokeColor=none;fillColor=none;align=left;verticalAlign=middle;spacingLeft=4;spacingRight=4;overflow=hidden;points=[[0,0.5],[1,0.5]];portConstraint=eastwest;rotatable=0;whiteSpace=wrap;html=1;" parent="WIyWlLk6GJQsqaUBKTNV-1" vertex="1">
          <mxGeometry x="40" y="40" width="80" height="30" as="geometry" />
        </mxCell>
        <mxCell id="XRQsmOzAujlqHSzxxDNQ-53" value="" style="edgeStyle=orthogonalEdgeStyle;rounded=0;orthogonalLoop=1;jettySize=auto;html=1;" parent="WIyWlLk6GJQsqaUBKTNV-1" source="XRQsmOzAujlqHSzxxDNQ-50" target="XRQsmOzAujlqHSzxxDNQ-52" edge="1">
          <mxGeometry relative="1" as="geometry" />
        </mxCell>
        <mxCell id="XRQsmOzAujlqHSzxxDNQ-50" value="레이저 생성 및 시각 효과 출력" style="whiteSpace=wrap;html=1;shadow=0;strokeWidth=1;spacing=6;spacingTop=-4;" parent="WIyWlLk6GJQsqaUBKTNV-1" vertex="1">
          <mxGeometry x="247" y="260" width="82" height="60" as="geometry" />
        </mxCell>
        <mxCell id="XRQsmOzAujlqHSzxxDNQ-55" value="" style="edgeStyle=orthogonalEdgeStyle;rounded=0;orthogonalLoop=1;jettySize=auto;html=1;" parent="WIyWlLk6GJQsqaUBKTNV-1" source="XRQsmOzAujlqHSzxxDNQ-52" target="XRQsmOzAujlqHSzxxDNQ-54" edge="1">
          <mxGeometry relative="1" as="geometry" />
        </mxCell>
        <mxCell id="XRQsmOzAujlqHSzxxDNQ-52" value="레이저 경로 의 오브젝트 검사 시작" style="whiteSpace=wrap;html=1;shadow=0;strokeWidth=1;spacing=6;spacingTop=-4;" parent="WIyWlLk6GJQsqaUBKTNV-1" vertex="1">
          <mxGeometry x="247" y="360" width="82" height="60" as="geometry" />
        </mxCell>
        <mxCell id="XRQsmOzAujlqHSzxxDNQ-57" value="" style="edgeStyle=orthogonalEdgeStyle;rounded=0;orthogonalLoop=1;jettySize=auto;html=1;entryX=0.5;entryY=0;entryDx=0;entryDy=0;" parent="WIyWlLk6GJQsqaUBKTNV-1" source="XRQsmOzAujlqHSzxxDNQ-54" target="XRQsmOzAujlqHSzxxDNQ-59" edge="1">
          <mxGeometry relative="1" as="geometry">
            <mxPoint x="388" y="489" as="targetPoint" />
          </mxGeometry>
        </mxCell>
        <mxCell id="XRQsmOzAujlqHSzxxDNQ-58" value="No" style="edgeLabel;html=1;align=center;verticalAlign=middle;resizable=0;points=[];" parent="XRQsmOzAujlqHSzxxDNQ-57" vertex="1" connectable="0">
          <mxGeometry x="-0.0873" y="2" relative="1" as="geometry">
            <mxPoint y="-8" as="offset" />
          </mxGeometry>
        </mxCell>
        <mxCell id="XRQsmOzAujlqHSzxxDNQ-66" value="" style="edgeStyle=orthogonalEdgeStyle;rounded=0;orthogonalLoop=1;jettySize=auto;html=1;" parent="WIyWlLk6GJQsqaUBKTNV-1" source="XRQsmOzAujlqHSzxxDNQ-54" target="XRQsmOzAujlqHSzxxDNQ-67" edge="1">
          <mxGeometry relative="1" as="geometry">
            <mxPoint x="288" y="619" as="targetPoint" />
          </mxGeometry>
        </mxCell>
        <mxCell id="XRQsmOzAujlqHSzxxDNQ-54" value="오브젝트&lt;div&gt;=&lt;/div&gt;&lt;div&gt;적&lt;/div&gt;" style="rhombus;whiteSpace=wrap;html=1;shadow=0;strokeWidth=1;spacing=6;spacingTop=-4;" parent="WIyWlLk6GJQsqaUBKTNV-1" vertex="1">
          <mxGeometry x="248" y="449" width="80" height="80" as="geometry" />
        </mxCell>
        <mxCell id="XRQsmOzAujlqHSzxxDNQ-61" value="" style="edgeStyle=orthogonalEdgeStyle;rounded=0;orthogonalLoop=1;jettySize=auto;html=1;" parent="WIyWlLk6GJQsqaUBKTNV-1" source="XRQsmOzAujlqHSzxxDNQ-59" target="XRQsmOzAujlqHSzxxDNQ-62" edge="1">
          <mxGeometry relative="1" as="geometry">
            <mxPoint x="420" y="619" as="targetPoint" />
          </mxGeometry>
        </mxCell>
        <mxCell id="XRQsmOzAujlqHSzxxDNQ-64" value="Yes" style="edgeLabel;html=1;align=center;verticalAlign=middle;resizable=0;points=[];" parent="XRQsmOzAujlqHSzxxDNQ-61" vertex="1" connectable="0">
          <mxGeometry x="-0.2305" y="2" relative="1" as="geometry">
            <mxPoint x="9" as="offset" />
          </mxGeometry>
        </mxCell>
        <mxCell id="XRQsmOzAujlqHSzxxDNQ-71" value="" style="edgeStyle=orthogonalEdgeStyle;rounded=0;orthogonalLoop=1;jettySize=auto;html=1;" parent="WIyWlLk6GJQsqaUBKTNV-1" source="XRQsmOzAujlqHSzxxDNQ-59" target="XRQsmOzAujlqHSzxxDNQ-68" edge="1">
          <mxGeometry relative="1" as="geometry">
            <mxPoint x="288" y="649" as="targetPoint" />
            <Array as="points">
              <mxPoint x="360" y="589" />
              <mxPoint x="360" y="639" />
              <mxPoint x="288" y="639" />
            </Array>
          </mxGeometry>
        </mxCell>
        <mxCell id="XRQsmOzAujlqHSzxxDNQ-72" value="No" style="edgeLabel;html=1;align=center;verticalAlign=middle;resizable=0;points=[];" parent="XRQsmOzAujlqHSzxxDNQ-71" vertex="1" connectable="0">
          <mxGeometry x="-0.3137" y="-2" relative="1" as="geometry">
            <mxPoint x="12" y="-52" as="offset" />
          </mxGeometry>
        </mxCell>
        <mxCell id="XRQsmOzAujlqHSzxxDNQ-59" value="오브젝트&lt;div&gt;=&lt;/div&gt;&lt;div&gt;탄막&lt;/div&gt;" style="rhombus;whiteSpace=wrap;html=1;shadow=0;strokeWidth=1;spacing=6;spacingTop=-4;" parent="WIyWlLk6GJQsqaUBKTNV-1" vertex="1">
          <mxGeometry x="381" y="549" width="80" height="80" as="geometry" />
        </mxCell>
        <mxCell id="XRQsmOzAujlqHSzxxDNQ-70" value="" style="edgeStyle=orthogonalEdgeStyle;rounded=0;orthogonalLoop=1;jettySize=auto;html=1;" parent="WIyWlLk6GJQsqaUBKTNV-1" source="XRQsmOzAujlqHSzxxDNQ-62" target="XRQsmOzAujlqHSzxxDNQ-68" edge="1">
          <mxGeometry relative="1" as="geometry" />
        </mxCell>
        <mxCell id="XRQsmOzAujlqHSzxxDNQ-62" value="탄막 제거" style="whiteSpace=wrap;html=1;shadow=0;strokeWidth=1;spacing=6;spacingTop=-4;" parent="WIyWlLk6GJQsqaUBKTNV-1" vertex="1">
          <mxGeometry x="380" y="679" width="82" height="60" as="geometry" />
        </mxCell>
        <mxCell id="XRQsmOzAujlqHSzxxDNQ-69" value="" style="edgeStyle=orthogonalEdgeStyle;rounded=0;orthogonalLoop=1;jettySize=auto;html=1;" parent="WIyWlLk6GJQsqaUBKTNV-1" source="XRQsmOzAujlqHSzxxDNQ-67" target="XRQsmOzAujlqHSzxxDNQ-68" edge="1">
          <mxGeometry relative="1" as="geometry" />
        </mxCell>
        <mxCell id="XRQsmOzAujlqHSzxxDNQ-67" value="적에게 데미지 적용" style="whiteSpace=wrap;html=1;shadow=0;strokeWidth=1;spacing=6;spacingTop=-4;" parent="WIyWlLk6GJQsqaUBKTNV-1" vertex="1">
          <mxGeometry x="247" y="559" width="82" height="60" as="geometry" />
        </mxCell>
        <mxCell id="XRQsmOzAujlqHSzxxDNQ-74" value="" style="edgeStyle=orthogonalEdgeStyle;rounded=0;orthogonalLoop=1;jettySize=auto;html=1;" parent="WIyWlLk6GJQsqaUBKTNV-1" source="XRQsmOzAujlqHSzxxDNQ-68" target="XRQsmOzAujlqHSzxxDNQ-75" edge="1">
          <mxGeometry relative="1" as="geometry">
            <mxPoint x="288" y="779" as="targetPoint" />
          </mxGeometry>
        </mxCell>
        <mxCell id="XRQsmOzAujlqHSzxxDNQ-68" value="다음 오브젝트 검사" style="whiteSpace=wrap;html=1;shadow=0;strokeWidth=1;spacing=6;spacingTop=-4;" parent="WIyWlLk6GJQsqaUBKTNV-1" vertex="1">
          <mxGeometry x="247" y="679" width="82" height="60" as="geometry" />
        </mxCell>
        <mxCell id="XRQsmOzAujlqHSzxxDNQ-79" value="" style="edgeStyle=orthogonalEdgeStyle;rounded=0;orthogonalLoop=1;jettySize=auto;html=1;" parent="WIyWlLk6GJQsqaUBKTNV-1" source="XRQsmOzAujlqHSzxxDNQ-75" edge="1">
          <mxGeometry relative="1" as="geometry">
            <mxPoint x="288.02857142857135" y="879" as="targetPoint" />
          </mxGeometry>
        </mxCell>
        <mxCell id="XRQsmOzAujlqHSzxxDNQ-75" value="검사 종료&lt;div&gt;&amp;nbsp;&lt;span style=&quot;background-color: transparent; color: light-dark(rgb(0, 0, 0), rgb(255, 255, 255));&quot;&gt;확인&lt;/span&gt;&lt;/div&gt;" style="rhombus;whiteSpace=wrap;html=1;shadow=0;strokeWidth=1;spacing=6;spacingTop=-4;" parent="WIyWlLk6GJQsqaUBKTNV-1" vertex="1">
          <mxGeometry x="248" y="779" width="80" height="80" as="geometry" />
        </mxCell>
        <mxCell id="XRQsmOzAujlqHSzxxDNQ-76" value="" style="endArrow=classic;html=1;rounded=0;exitX=0;exitY=0.5;exitDx=0;exitDy=0;" parent="WIyWlLk6GJQsqaUBKTNV-1" source="XRQsmOzAujlqHSzxxDNQ-75" target="XRQsmOzAujlqHSzxxDNQ-54" edge="1">
          <mxGeometry width="50" height="50" relative="1" as="geometry">
            <mxPoint x="150" y="819" as="sourcePoint" />
            <mxPoint x="200" y="429" as="targetPoint" />
            <Array as="points">
              <mxPoint x="200" y="819" />
              <mxPoint x="200" y="489" />
            </Array>
          </mxGeometry>
        </mxCell>
        <mxCell id="XRQsmOzAujlqHSzxxDNQ-77" value="No" style="edgeLabel;html=1;align=center;verticalAlign=middle;resizable=0;points=[];" parent="XRQsmOzAujlqHSzxxDNQ-76" vertex="1" connectable="0">
          <mxGeometry x="-0.863" y="-2" relative="1" as="geometry">
            <mxPoint y="-8" as="offset" />
          </mxGeometry>
        </mxCell>
        <mxCell id="XRQsmOzAujlqHSzxxDNQ-83" value="" style="edgeStyle=orthogonalEdgeStyle;rounded=0;orthogonalLoop=1;jettySize=auto;html=1;" parent="WIyWlLk6GJQsqaUBKTNV-1" source="XRQsmOzAujlqHSzxxDNQ-80" target="XRQsmOzAujlqHSzxxDNQ-82" edge="1">
          <mxGeometry relative="1" as="geometry" />
        </mxCell>
        <mxCell id="XRQsmOzAujlqHSzxxDNQ-80" value="검사 완료" style="whiteSpace=wrap;html=1;shadow=0;strokeWidth=1;spacing=6;spacingTop=-4;" parent="WIyWlLk6GJQsqaUBKTNV-1" vertex="1">
          <mxGeometry x="246" y="879" width="82" height="60" as="geometry" />
        </mxCell>
        <mxCell id="jBQu_t9P48dw0bJzVstF-2" value="" style="edgeStyle=orthogonalEdgeStyle;rounded=0;orthogonalLoop=1;jettySize=auto;html=1;" edge="1" parent="WIyWlLk6GJQsqaUBKTNV-1" source="XRQsmOzAujlqHSzxxDNQ-82" target="jBQu_t9P48dw0bJzVstF-1">
          <mxGeometry relative="1" as="geometry" />
        </mxCell>
        <mxCell id="XRQsmOzAujlqHSzxxDNQ-82" value="레이저&amp;nbsp;&lt;div&gt;지속 시간&amp;nbsp;&lt;div&gt;종료 후 제거&lt;/div&gt;&lt;/div&gt;" style="whiteSpace=wrap;html=1;shadow=0;strokeWidth=1;spacing=6;spacingTop=-4;" parent="WIyWlLk6GJQsqaUBKTNV-1" vertex="1">
          <mxGeometry x="246" y="960" width="82" height="60" as="geometry" />
        </mxCell>
        <mxCell id="XRQsmOzAujlqHSzxxDNQ-84" value="종료" style="ellipse;whiteSpace=wrap;html=1;shadow=0;strokeWidth=1;spacing=6;spacingTop=-4;" parent="WIyWlLk6GJQsqaUBKTNV-1" vertex="1">
          <mxGeometry x="258.5" y="1140" width="57" height="50" as="geometry" />
        </mxCell>
        <mxCell id="jBQu_t9P48dw0bJzVstF-3" value="" style="edgeStyle=orthogonalEdgeStyle;rounded=0;orthogonalLoop=1;jettySize=auto;html=1;" edge="1" parent="WIyWlLk6GJQsqaUBKTNV-1" source="jBQu_t9P48dw0bJzVstF-1" target="XRQsmOzAujlqHSzxxDNQ-84">
          <mxGeometry relative="1" as="geometry" />
        </mxCell>
        <mxCell id="jBQu_t9P48dw0bJzVstF-1" value="게이지 초기화" style="whiteSpace=wrap;html=1;shadow=0;strokeWidth=1;spacing=6;spacingTop=-4;" vertex="1" parent="WIyWlLk6GJQsqaUBKTNV-1">
          <mxGeometry x="247" y="1050" width="82" height="60" as="geometry" />
        </mxCell>
      </root>
    </mxGraphModel>
  </diagram>
</mxfile>
